<?xml version="1.0" encoding="utf-8"?>
<!-- Generator: Adobe Illustrator 24.3.0, SVG Export Plug-In . SVG Version: 6.00 Build 0)  -->
<svg version="1.1" id="Layer_1" xmlns="http://www.w3.org/2000/svg" xmlns:xlink="http://www.w3.org/1999/xlink" x="0px" y="0px"
	 viewBox="0 0 383 106.6" style="enable-background:new 0 0 383 106.6;" xml:space="preserve">
<style type="text/css">
	.st0{fill:#FFFFFF;}
	.st1{fill:#FF8264;}
</style>
<g>
	<path class="st0" d="M58,76.7c-2.6,1-5.5,1.5-8.4,1.5c-13.2,0-23.8-10.7-23.8-23.8s10.7-23.8,23.8-23.8c6.9,0,13.1,2.9,17.4,7.6
		L80.5,25c-7.8-8.2-18.8-13.3-30.9-13.3C26,11.7,6.8,30.8,6.8,54.4S26,97.1,49.6,97.1c8.2,0,15.8-2.3,22.3-6.3L58,76.7z"/>
	<path class="st1" d="M54.6,54.4h37.3c0.4,0,0.8,0.4,0.8,0.8c-0.2,3.7-1.8,19-11.6,28.6c-0.3,0.3-0.8,0.3-1.1,0L54,55.7
		C53.6,55.2,53.9,54.4,54.6,54.4z"/>
	<g>
		<g>
			<path class="st0" d="M129.3,29c-0.6-1.1-1.4-1.9-2.5-2.5s-2.4-0.9-3.8-0.9c-2.5,0-4.6,0.8-6.1,2.5s-2.3,3.9-2.3,6.7
				c0,3,0.8,5.3,2.4,7s3.8,2.5,6.6,2.5c1.9,0,3.6-0.5,4.9-1.5s2.3-2.4,2.9-4.2h-10v-5.8h17.1v7.3c-0.6,2-1.6,3.8-3,5.5
				s-3.2,3.1-5.3,4.1s-4.6,1.6-7.3,1.6c-3.2,0-6-0.7-8.5-2.1c-2.5-1.4-4.4-3.3-5.8-5.8s-2.1-5.3-2.1-8.5s0.7-6,2.1-8.5
				s3.3-4.4,5.8-5.8s5.3-2.1,8.5-2.1c3.9,0,7.1,0.9,9.8,2.8s4.4,4.5,5.3,7.8L129.3,29L129.3,29z"/>
			<path class="st0" d="M150.8,18.8v32.3h-7.9V18.8H150.8z"/>
			<path class="st0" d="M164.9,44.6h13.9V51H156v-6l13.8-19.9H156v-6.4h22.8v6L164.9,44.6z"/>
			<path class="st0" d="M220.5,18.8v32.3h-7.9V31.7l-7.2,19.4H199l-7.3-19.4v19.4h-7.9V18.8h9.3l9.1,22.4l9-22.4
				C211.2,18.8,220.5,18.8,220.5,18.8z"/>
			<path class="st0" d="M233.1,49.3c-2.5-1.4-4.5-3.4-6-5.9s-2.2-5.4-2.2-8.5c0-3.2,0.7-6,2.2-8.5s3.5-4.5,6-5.9s5.3-2.1,8.3-2.1
				s5.8,0.7,8.3,2.1s4.5,3.4,6,5.9s2.2,5.4,2.2,8.5c0,3.2-0.7,6-2.2,8.5c-1.5,2.5-3.5,4.5-6,5.9s-5.3,2.1-8.3,2.1
				S235.6,50.7,233.1,49.3z M247.6,41.6c1.5-1.7,2.3-4,2.3-6.8c0-2.9-0.8-5.1-2.3-6.8s-3.6-2.6-6.2-2.6c-2.6,0-4.7,0.8-6.2,2.5
				s-2.3,4-2.3,6.9s0.8,5.1,2.3,6.8s3.6,2.6,6.2,2.6C244,44.2,246.1,43.4,247.6,41.6z"/>
			<path class="st0" d="M285.5,18.8v6.3H277v26h-7.9v-26h-8.6v-6.3H285.5z"/>
			<path class="st0" d="M297.4,25.1v6.5h10.5v6.1h-10.5v7.1h11.9v6.3h-19.8V18.8h19.8v6.3C309.3,25.1,297.4,25.1,297.4,25.1z"/>
			<path class="st0" d="M315.1,26.3c1.4-2.5,3.3-4.4,5.8-5.8s5.3-2.1,8.4-2.1c3.8,0,7.1,1,9.8,3s4.6,4.8,5.5,8.3H336
				c-0.6-1.3-1.6-2.4-2.7-3.1c-1.2-0.7-2.5-1.1-4-1.1c-2.4,0-4.4,0.8-5.9,2.5s-2.3,3.9-2.3,6.8c0,2.8,0.8,5.1,2.3,6.8
				s3.5,2.5,5.9,2.5c1.5,0,2.8-0.4,4-1.1c1.2-0.7,2.1-1.7,2.7-3.1h8.6c-0.9,3.5-2.7,6.2-5.5,8.3c-2.7,2-6,3-9.8,3
				c-3.1,0-5.9-0.7-8.4-2.1c-2.5-1.4-4.4-3.3-5.8-5.8S313,38,313,34.8C313,31.7,313.7,28.8,315.1,26.3z"/>
			<path class="st0" d="M377.4,18.8v32.3h-7.9V37.8h-12.2v13.3h-7.9V18.8h7.9v12.7h12.2V18.8H377.4z"/>
		</g>
	</g>
	<g>
		<g>
			<path class="st0" d="M112.7,67.8v19.5h-2.5V67.8H112.7z"/>
			<path class="st0" d="M139.9,67.8v2.1h-5.3v17.4H132V69.9h-5.3v-2.1H139.9z"/>
			<path class="st0" d="M174.8,86.8c-1-0.5-1.8-1.1-2.4-1.9c-0.6-0.8-0.9-1.8-0.9-2.8h2.7c0.1,0.9,0.5,1.7,1.1,2.3
				c0.7,0.6,1.6,0.9,2.9,0.9c1.2,0,2.2-0.3,2.9-0.9s1.1-1.4,1.1-2.3c0-0.7-0.2-1.4-0.6-1.8c-0.4-0.5-0.9-0.8-1.5-1.1
				c-0.6-0.2-1.4-0.5-2.5-0.8c-1.3-0.3-2.3-0.7-3.1-1s-1.4-0.9-2-1.6s-0.8-1.7-0.8-2.9c0-1.1,0.3-2,0.8-2.8s1.3-1.5,2.3-1.9
				s2.1-0.7,3.4-0.7c1.8,0,3.3,0.5,4.5,1.4s1.8,2.1,2,3.6h-2.8c-0.1-0.7-0.5-1.4-1.2-2s-1.6-0.9-2.7-0.9c-1.1,0-1.9,0.3-2.6,0.8
				c-0.7,0.6-1,1.3-1,2.3c0,0.7,0.2,1.3,0.6,1.7c0.4,0.4,0.9,0.8,1.5,1s1.4,0.5,2.5,0.8c1.3,0.4,2.3,0.7,3.1,1s1.5,0.9,2,1.6
				s0.8,1.7,0.8,2.9c0,1-0.3,1.8-0.8,2.7s-1.3,1.5-2.2,2c-1,0.5-2.2,0.8-3.5,0.8C176.9,87.5,175.8,87.3,174.8,86.8z"/>
			<path class="st0" d="M203.1,86.2c-1.5-0.8-2.7-2-3.5-3.6c-0.9-1.5-1.3-3.2-1.3-5.1s0.4-3.6,1.3-5.1c0.9-1.5,2-2.7,3.5-3.6
				c1.5-0.8,3.1-1.3,5-1.3c1.8,0,3.5,0.4,5,1.3c1.5,0.8,2.7,2,3.5,3.5c0.9,1.5,1.3,3.2,1.3,5.2c0,1.9-0.4,3.6-1.3,5.2
				c-0.9,1.5-2,2.7-3.5,3.5s-3.2,1.3-5,1.3S204.6,87.1,203.1,86.2z M211.8,84.4c1.1-0.6,2-1.5,2.6-2.7s0.9-2.5,0.9-4.1
				s-0.3-2.9-0.9-4.1c-0.6-1.2-1.5-2.1-2.6-2.7s-2.3-1-3.7-1s-2.6,0.3-3.7,1c-1.1,0.6-1.9,1.5-2.6,2.7c-0.6,1.2-0.9,2.5-0.9,4.1
				c0,1.5,0.3,2.9,0.9,4.1c0.6,1.2,1.5,2.1,2.6,2.7s2.3,1,3.7,1C209.5,85.3,210.7,85,211.8,84.4z"/>
			<path class="st0" d="M234.6,85.2h6.8v2.1H232V67.8h2.5v17.4H234.6z"/>
			<path class="st0" d="M257.4,67.8v12.3c0,1.7,0.4,3,1.3,3.9s2,1.3,3.5,1.3s2.7-0.4,3.5-1.3s1.3-2.1,1.3-3.9V67.8h2.5v12.3
				c0,1.6-0.3,3-1,4.1s-1.5,1.9-2.6,2.5c-1.1,0.5-2.4,0.8-3.7,0.8c-1.4,0-2.6-0.3-3.7-0.8s-2-1.4-2.6-2.5s-1-2.5-1-4.1V67.8H257.4z"
				/>
			<path class="st0" d="M296.6,67.8v2.1h-5.3v17.4h-2.5V69.9h-5.3v-2.1H296.6z"/>
			<path class="st0" d="M313.1,67.8v19.5h-2.5V67.8H313.1z"/>
			<path class="st0" d="M332.1,86.2c-1.5-0.8-2.7-2-3.5-3.6s-1.3-3.2-1.3-5.1s0.4-3.6,1.3-5.1s2-2.7,3.5-3.6s3.1-1.3,5-1.3
				c1.8,0,3.5,0.4,5,1.3c1.5,0.8,2.7,2,3.5,3.5s1.3,3.2,1.3,5.2c0,1.9-0.4,3.6-1.3,5.2s-2,2.7-3.5,3.5s-3.2,1.3-5,1.3
				C335.2,87.5,333.6,87.1,332.1,86.2z M340.7,84.4c1.1-0.6,2-1.5,2.6-2.7s0.9-2.5,0.9-4.1s-0.3-2.9-0.9-4.1s-1.5-2.1-2.6-2.7
				s-2.3-1-3.7-1c-1.4,0-2.6,0.3-3.7,1c-1.1,0.6-1.9,1.5-2.6,2.7c-0.6,1.2-0.9,2.5-0.9,4.1c0,1.5,0.3,2.9,0.9,4.1s1.5,2.1,2.6,2.7
				s2.3,1,3.7,1S339.6,85,340.7,84.4z"/>
			<path class="st0" d="M376.3,87.3h-2.5l-10.2-15.5v15.5H361V67.8h2.5l10.2,15.5V67.8h2.5L376.3,87.3L376.3,87.3z"/>
		</g>
	</g>
</g>
</svg>
